<?xml version="1.0" encoding="utf-8"?>
<!-- Generator: Adobe Illustrator 25.2.0, SVG Export Plug-In . SVG Version: 6.00 Build 0)  -->
<svg version="1.1" id="Layer_1" xmlns="http://www.w3.org/2000/svg" xmlns:xlink="http://www.w3.org/1999/xlink" x="0px" y="0px"
	 viewBox="0 0 156 156" style="enable-background:new 0 0 156 156;" xml:space="preserve">
<style type="text/css">
	.st0{fill:#333333;}
</style>
<g>
	<path class="st0" d="M80,87.7c0,3,2.4,5.5,5.5,5.5s5.5-2.4,5.5-5.5c0-3-2.4-5.5-5.5-5.5l0,0l0,0C82.4,82.2,80,84.7,80,87.7z
		 M85.5,84.2c1.9,0,3.5,1.5,3.5,3.5s-1.5,3.5-3.5,3.5S82,89.7,82,87.7c0,0,0,0,0,0l0,0C82,85.8,83.6,84.2,85.5,84.2L85.5,84.2
		L85.5,84.2z M51,118.2c0-3-2.4-5.5-5.5-5.5s-5.5,2.4-5.5,5.5c0,3,2.4,5.5,5.5,5.5l0,0l0,0C48.6,123.6,51,121.2,51,118.2z M42,118.2
		c0-1.9,1.6-3.5,3.5-3.5s3.5,1.6,3.5,3.5s-1.6,3.5-3.5,3.5l0,0C43.6,121.7,42,120.1,42,118.2z M132.2,116.5c0-3-2.4-5.5-5.5-5.5
		c-3,0-5.5,2.4-5.5,5.5c0,3,2.4,5.5,5.5,5.5l0,0l0,0C129.7,121.9,132.2,119.5,132.2,116.5L132.2,116.5z M123.2,116.5
		c0-1.9,1.6-3.5,3.5-3.5s3.5,1.6,3.5,3.5s-1.6,3.5-3.5,3.5l0,0l0,0C124.7,120,123.2,118.4,123.2,116.5L123.2,116.5L123.2,116.5z
		 M113.2,85.1L84.8,70.5L25,105.7h2v27.7h2v-27.8l27.4-0.7h2.4l0.3-0.3c0.3-0.2,0.6-0.4,1-0.5v29.6H65v-30.5
		c1.6-0.2,3.5-0.3,5.9-0.4v31h4.9v-31.1l6.2-0.1v31.1h4.9v-31.2h8.3v31.2h4.9v-31.2h5.3v31.2h4.9l-0.1-30.3l33.1-0.4v30.3h2v-30.2
		h5.8v-2h-6.4l-27.4-14.1h34v-2h-4.4V69.7l2-2.8l-3.6-1.7l0,0l-1.2-0.5l0.1-3.7l1.6-2.3l-7.2-8.5v-11c0-0.6-0.4-1-1-1s-1,0.4-1,1
		v10.9l-6.9,8.5l1.5,2.9V65l-5,1.4l2.5,3.3v15.4H113.2L113.2,85.1z M63.1,132h-1v-27.8l1-0.2V132L63.1,132z M98.3,132h-1v-29.3h1
		V132z M73.9,132h-1v-28.8h1V132z M85,132h-1v-29.2h1V132L85,132z M95.9,100.8h-0.6c-6.7,0-15.3,0.1-22.2,0.2
		c-7.6,0.1-11.5,0.8-13.5,1.5v-4c8.6-1,17.2-1.6,25.8-1.7c7.7-0.1,15.4,0.2,23,0.9v3.6c-0.9-0.2-1.8-0.4-2.8-0.5
		C105.1,100.8,101.2,100.7,95.9,100.8L95.9,100.8L95.9,100.8z M107.4,132v-28.8l0.9,0.2l0.1,28.6L107.4,132L107.4,132z M111.9,101.6
		h-1.5v-5.7l-0.8-0.1c-8-0.8-16-1.2-24.1-1c-9,0.1-18,0.7-26.9,1.8l-0.8,0.1v6.3h-1.3l-24,0.6l52.4-30.9l55.5,28.5L111.9,101.6z
		 M137.5,52l5.7,6.8l-1.1,1.6l-0.1,4.4l-2.8-0.4h-4l-2.2,0.4V61l-1.1-2.2L137.5,52z M129.4,67.5l1.4-0.4l4.6-0.8h3.7l5.5,0.8
		l1.2,0.6l-1,1.4v16.1h-14.1v-16L129.4,67.5z M150.5,149.8H17.9c-1.2,0-2.1,0.6-2.1,1.4s1,1.4,2.1,1.4h132.7c1.2,0,2.1-0.6,2.1-1.4
		S151.7,149.8,150.5,149.8L150.5,149.8z M18.6,145.6c0,0.8,1,1.4,2.3,1.4h126.9c1.2,0,2.2-0.6,2.2-1.4s-1-1.4-2.2-1.4H20.9
		C19.6,144.2,18.6,144.9,18.6,145.6z M23.2,139.9c0,0.8,1,1.4,2.4,1.4h119.9c1.3,0,2.3-0.6,2.3-1.4s-1-1.4-2.3-1.4H25.6
		C24.3,138.5,23.2,139.1,23.2,139.9z M139.6,45.5h9c0.3,0,0.5-0.2,0.5-0.5c0-0.2-0.1-0.3-0.2-0.4l-3.2-2.5l3.2-2.5
		c0.2-0.2,0.2-0.5,0.1-0.7c-0.1-0.1-0.2-0.2-0.4-0.2h-9c-0.3,0-0.5,0.2-0.5,0.5V45C139.1,45.3,139.4,45.5,139.6,45.5
		C139.6,45.5,139.6,45.5,139.6,45.5z M140.1,39.6h7l-2.6,2c-0.2,0.2-0.3,0.5-0.1,0.7l0.1,0.1l2.6,2h-7V39.6L140.1,39.6z M18.6,132.8
		v-32.2c1.8-0.1,3.5-0.7,5-1.8c2.5,2,6.2,1.6,8.2-0.9c1.5-1.9,1.7-4.4,0.5-6.5c1.6-0.6,2.6-2.1,2.5-3.8c0-2.6-2.1-4.7-4.7-4.7
		c0,0,0,0,0,0H30c-1.1-2.9-3.8-4.9-6.9-4.9c-2.9,0-5.6,1.5-7,4C16,82,16,82.2,16,82.3c-2,0.5-3.8,1.6-5.1,3.2h-0.6
		c-4,0-7.3,3.2-7.4,7.3c0,4,3.2,7.3,7.3,7.4c1.1,0,2.2-0.3,3.3-0.7c1,0.6,2,0.9,3.1,1.1v6.2l-0.8-0.8c0.7-1.5,0.1-3.3-1.4-4
		c-1.5-0.7-3.3-0.1-4,1.4c-0.7,1.5-0.1,3.3,1.4,4c0.8,0.4,1.8,0.4,2.6,0l2.2,2.2v23.4c0,0.6,0.5,1,1,1
		C18.2,133.8,18.6,133.4,18.6,132.8z M12.3,104.6c0-0.6,0.4-1,1-1s1,0.4,1,1s-0.4,1-1,1S12.3,105.2,12.3,104.6L12.3,104.6z
		 M23.1,79.8c2.5,0,4.7,1.7,5.3,4.2c0.1,0.5,0.6,0.8,1.2,0.7l0,0c1.5-0.4,3,0.5,3.4,1.9c0.1,0.3,0.1,0.5,0.1,0.8
		c0.1,1.1-0.7,2-1.8,2.1H31c-1.2-0.9-2.6-1.3-4.1-1.2c-1.2-3.7-4.7-6.3-8.6-6.4C19.5,80.6,21.3,79.8,23.1,79.8L23.1,79.8L23.1,79.8z
		 M13.5,97.2c-0.2,0-0.3,0.1-0.5,0.1c-2.5,1.5-5.9,0.7-7.4-1.8s-0.7-5.9,1.8-7.4c1.1-0.7,2.4-0.9,3.7-0.7c0.4,0.1,0.8-0.1,1-0.4
		c2.3-3.3,6.9-4.1,10.2-1.8c1.5,1.1,2.5,2.6,2.9,4.4c0.1,0.5,0.6,0.8,1.2,0.7l0,0c1.2-0.3,2.5,0,3.5,0.8l0.1,0.1
		c1.4,1.6,1.3,4.1-0.3,5.5c-1.4,1.3-3.6,1.3-5.1,0.1l-0.2-0.3c-0.4-0.4-1-0.4-1.4-0.1l0,0c-2.5,2.3-6.2,2.6-9,0.7
		C13.9,97.3,13.7,97.2,13.5,97.2L13.5,97.2L13.5,97.2z M44.4,71.9c15.6,0,28.3-12.7,28.3-28.3S60,15.3,44.4,15.3S16.1,28,16.1,43.6
		S28.8,71.9,44.4,71.9L44.4,71.9z M44.4,17.3c14.6,0,26.3,11.8,26.3,26.4C70.7,58.2,58.9,70,44.3,70C29.8,69.9,18,58.2,18,43.6
		C18,29.1,29.8,17.3,44.4,17.3C44.4,17.3,44.4,17.3,44.4,17.3L44.4,17.3L44.4,17.3L44.4,17.3z M78.9,44.6h5.8c0.6,0,1-0.4,1-1
		s-0.4-1-1-1h-5.8c-0.6,0-1,0.4-1,1S78.4,44.6,78.9,44.6z M44.4,10.1c0.6,0,1-0.4,1-1V3.3c0-0.6-0.4-1-1-1s-1,0.4-1,1v5.8
		C43.4,9.6,43.8,10.1,44.4,10.1z M4.1,44.6h5.8c0.6,0,1-0.4,1-1s-0.4-1-1-1H4.1c-0.6,0-1,0.4-1,1S3.5,44.6,4.1,44.6z M45.4,83.9
		v-5.8c0-0.6-0.4-1-1-1s-1,0.4-1,1v5.8c0,0.6,0.4,1,1,1S45.4,84.5,45.4,83.9z M68.8,20.2c0.3,0,0.5-0.1,0.7-0.3l4.1-4.1
		c0.3-0.5,0.2-1.1-0.3-1.4c-0.3-0.2-0.7-0.2-1.1,0l-4.1,4.1c-0.4,0.4-0.3,1,0.1,1.4C68.4,20.1,68.6,20.1,68.8,20.2z M19.3,19.9
		c0.5,0.3,1.1,0.2,1.4-0.3c0.2-0.3,0.2-0.7,0-1.1l-4.1-4.1c-0.5-0.3-1.1-0.2-1.4,0.3c-0.2,0.3-0.2,0.7,0,1.1L19.3,19.9z M15.9,73.1
		c0.3,0,0.5-0.1,0.7-0.3l4.1-4.1c0.3-0.5,0.2-1.1-0.3-1.4c-0.3-0.2-0.7-0.2-1.1,0l-4.1,4.1c-0.4,0.4-0.3,1,0.1,1.4
		C15.5,73,15.7,73.1,15.9,73.1z M72.9,73.1c0.6,0,1-0.5,1-1c0-0.2-0.1-0.5-0.3-0.6l-4.1-4.1c-0.5-0.3-1.1-0.2-1.4,0.3
		c-0.2,0.3-0.2,0.7,0,1.1l4.1,4.1C72.4,73,72.6,73.1,72.9,73.1L72.9,73.1z M27.5,55.5H31v1.1h-3.5V55.5z M38.2,60.4h-0.6
		c-0.1,0-0.2,0-0.3-0.1c-0.1-0.1-0.1-0.1-0.2-0.3L37,59.4c-0.2,0.2-0.4,0.3-0.6,0.5c-0.2,0.1-0.4,0.3-0.6,0.3
		c-0.2,0.1-0.4,0.2-0.7,0.2c-0.3,0-0.5,0.1-0.8,0.1c-0.3,0-0.5,0-0.8-0.1c-0.2-0.1-0.5-0.2-0.6-0.4c-0.2-0.2-0.3-0.4-0.4-0.6
		c-0.1-0.3-0.2-0.6-0.2-0.9c0-0.3,0.1-0.6,0.2-0.8c0.2-0.3,0.5-0.5,0.8-0.7c0.4-0.2,0.9-0.4,1.4-0.5c0.7-0.1,1.4-0.2,2.1-0.2v-0.6
		c0-0.5-0.1-0.9-0.4-1.3c-0.3-0.3-0.7-0.5-1.1-0.4c-0.3,0-0.5,0-0.8,0.1c-0.2,0.1-0.4,0.2-0.6,0.3l-0.4,0.3
		c-0.1,0.1-0.2,0.1-0.3,0.1c-0.1,0-0.2,0-0.2-0.1c-0.1-0.1-0.1-0.1-0.1-0.2l-0.2-0.4c0.4-0.4,0.8-0.7,1.3-0.9c0.5-0.2,1-0.3,1.5-0.2
		c0.4,0,0.7,0.1,1.1,0.2c0.3,0.1,0.6,0.3,0.8,0.6c0.2,0.3,0.4,0.5,0.5,0.9c0.1,0.4,0.2,0.7,0.2,1.1V60.4L38.2,60.4z M34.8,59.6
		c0.2,0,0.4,0,0.6-0.1c0.2,0,0.4-0.1,0.5-0.2c0.2-0.1,0.3-0.2,0.5-0.3c0.2-0.1,0.3-0.3,0.4-0.4v-1.5c-0.5,0-1,0-1.5,0.1
		c-0.3,0.1-0.7,0.2-1,0.3c-0.2,0.1-0.4,0.2-0.6,0.4c-0.1,0.2-0.2,0.4-0.2,0.5c0,0.2,0,0.3,0.1,0.5c0.1,0.1,0.1,0.2,0.3,0.3
		c0.1,0.1,0.2,0.2,0.4,0.2C34.5,59.6,34.7,59.6,34.8,59.6L34.8,59.6z M45.1,54.4c0,0-0.1,0.1-0.1,0.1c-0.1,0-0.1,0-0.2,0
		c-0.1,0-0.2,0-0.2-0.1l-0.3-0.2c-0.2-0.1-0.3-0.1-0.5-0.2c-0.5-0.1-1.1-0.1-1.6,0.1c-0.3,0.1-0.5,0.3-0.7,0.5
		c-0.2,0.3-0.3,0.6-0.4,0.9c-0.1,0.4-0.1,0.8-0.1,1.2c0,0.4,0,0.8,0.2,1.2c0.1,0.3,0.2,0.6,0.4,0.9c0.2,0.2,0.4,0.4,0.7,0.5
		c0.3,0.1,0.6,0.2,0.9,0.2c0.3,0,0.5,0,0.8-0.1c0.2-0.1,0.3-0.1,0.5-0.3l0.3-0.3c0.1-0.1,0.2-0.1,0.3-0.1c0.1,0,0.2,0,0.3,0.1
		l0.4,0.5c-0.3,0.4-0.7,0.7-1.2,0.8c-0.5,0.2-1,0.3-1.5,0.3c-0.4,0-0.9-0.1-1.3-0.3c-0.4-0.2-0.7-0.4-1-0.7
		c-0.3-0.3-0.5-0.7-0.7-1.2c-0.2-0.5-0.3-1-0.3-1.6c0-0.5,0.1-1,0.2-1.5c0.1-0.4,0.4-0.8,0.6-1.2c0.3-0.3,0.7-0.6,1.1-0.8
		C42,53,42.5,53,43,53c0.5,0,0.9,0.1,1.4,0.3c0.4,0.2,0.7,0.4,1,0.7L45.1,54.4z M46.8,60.4v-7.3h0.7c0.1,0,0.2,0,0.3,0.1
		c0.1,0.1,0.1,0.2,0.1,0.3l0.1,1.1c0.2-0.5,0.5-0.9,0.9-1.2c0.5-0.4,1.2-0.5,1.8-0.4c0.2,0,0.3,0.1,0.5,0.2l-0.2,1
		c0,0.1-0.1,0.2-0.2,0.2c-0.1,0-0.2,0-0.3-0.1c-0.2-0.1-0.4-0.1-0.6-0.1c-0.4,0-0.8,0.1-1.1,0.4c-0.3,0.3-0.6,0.7-0.8,1.1v4.7
		L46.8,60.4L46.8,60.4z M55.5,53c0.4,0,0.8,0.1,1.2,0.2c0.4,0.1,0.7,0.3,1,0.6c0.3,0.3,0.5,0.6,0.6,1c0.2,0.4,0.2,0.9,0.2,1.4
		c0,0.1,0,0.3-0.1,0.4c-0.1,0.1-0.2,0.1-0.3,0.1h-4.9c0,0.4,0.1,0.8,0.2,1.2c0.1,0.3,0.3,0.6,0.5,0.8c0.2,0.2,0.4,0.4,0.7,0.5
		c0.3,0.1,0.6,0.2,0.9,0.2c0.3,0,0.6,0,0.8-0.1c0.2-0.1,0.4-0.1,0.6-0.2l0.4-0.2c0.1-0.1,0.2-0.1,0.3-0.1c0.1,0,0.2,0,0.3,0.1
		l0.4,0.5c-0.2,0.2-0.4,0.4-0.6,0.5c-0.2,0.1-0.5,0.3-0.7,0.3c-0.3,0.1-0.5,0.2-0.8,0.2c-0.3,0-0.5,0.1-0.8,0.1
		c-0.5,0-1-0.1-1.4-0.3c-0.4-0.2-0.8-0.4-1.1-0.8c-0.3-0.4-0.6-0.8-0.7-1.2c-0.2-0.5-0.3-1.1-0.3-1.7c0-0.5,0.1-1,0.2-1.4
		c0.1-0.4,0.3-0.8,0.6-1.2c0.3-0.3,0.7-0.6,1.1-0.8C54.5,53.1,55,53,55.5,53z M55.5,53.9c-0.5,0-1.1,0.2-1.5,0.5
		c-0.4,0.4-0.6,0.9-0.7,1.5h4c0-0.3,0-0.6-0.1-0.8c-0.1-0.2-0.2-0.5-0.4-0.6c-0.2-0.2-0.4-0.3-0.6-0.4C56.1,54,55.8,53.9,55.5,53.9
		L55.5,53.9z"/>
	<g>
		<path class="st0" d="M50.9,43.7h-3.3v3.5h-2.6v-3.5h-9.2v-1.9L44,31.2h3.6v10.6h3.3V43.7z M45.1,33.3l-6.6,8.5h6.6V33.3z"/>
	</g>
	<g>
		<path class="st0" d="M64.2,42.1c0,0.8-0.2,1.5-0.6,2.2c-0.4,0.7-1,1.2-1.7,1.7c-0.7,0.5-1.6,0.8-2.5,1.1c-1,0.3-2,0.4-3.1,0.4
			c-0.3,0-0.6,0-0.9,0c-0.3,0-0.6,0-1,0c-0.3,0-0.6,0-0.9-0.1s-0.6-0.1-0.8-0.1v-1.9c0.5,0.1,1.1,0.2,1.8,0.2s1.4,0.1,2,0.1
			c0.8,0,1.5-0.1,2.1-0.2c0.6-0.2,1.2-0.4,1.6-0.7c0.4-0.3,0.8-0.6,1-1c0.2-0.4,0.3-0.9,0.3-1.4c0-1-0.4-1.7-1.3-2.2
			c-0.9-0.5-2.1-0.7-3.7-0.7h-3.6v-8.2h10.3v1.9h-7.9v4.5H57c0.9,0,1.8,0.1,2.7,0.2c0.9,0.1,1.6,0.4,2.3,0.7
			c0.7,0.3,1.2,0.8,1.6,1.4C64,40.5,64.2,41.2,64.2,42.1z"/>
	</g>
	<g>
		<path class="st0" d="M36.3,47.2h-12v-2h4.9V33.6l-4.6,2.1l-0.9-1.8l6.1-2.7H32v14.1h4.3V47.2z"/>
	</g>
</g>
</svg>
