<svg xmlns="http://www.w3.org/2000/svg" width="170" height="140" viewBox="0 0 170 140" preserveAspectRatio="xMinYMid" aria-hidden="true"><path d="M138,57l-52.2-26.4a1.2,1.2,0,0,0-1.4,0L32.22,57a1.63,1.63,0,0,0,0,2.8l9.3,4.9v5.9a6,6,0,0,0-4.4,5.7,1.5,1.5,0,0,0,3,0,2.8,2.8,0,0,1,5.6,0,1.5,1.5,0,0,0,3,0,6,6,0,0,0-4.4-5.7v-4.3l11,5.9a1.33,1.33,0,0,0-.3.8v12.1c0,4.8,3.2,9.7,8.9,13.4a38.85,38.85,0,0,0,20.7,5.9c7.6,0,15-2,20.7-5.9,5.7-3.7,8.9-8.6,8.9-13.4V72l23.3-12.3a1.6,1.6,0,0,0,.8-1.4A0.75,0.75,0,0,0,138,57Zm-26.3,28c0,7.5-11.6,16.1-26.6,16.1s-26.6-8.7-26.6-16.1V73.61l25.9,13.7a2.54,2.54,0,0,0,.7.2,1.45,1.45,0,0,0,.7-0.2l25.9-13.7V85Zm-26.6-.8L48,64.51,79.72,60a5.75,5.75,0,0,0,5.3,3.1c3.1,0,5.8-2.1,5.8-4.8s-2.5-4.8-5.8-4.8a5.75,5.75,0,0,0-5.5,3.4l-36.2,5.2-7-3.7,48.8-24.8,48.8,24.7Zm-2.6-25.9c0-.8,1.1-1.7,2.6-1.7s2.6,0.8,2.6,1.7-1.1,1.7-2.6,1.7S82.52,59.11,82.52,58.31Zm-43.8,23.8a1.47,1.47,0,0,1-1.5-1.5,1.54,1.54,0,0,1,1.5-1.5h8.7a1.5,1.5,0,1,1,0,3h-8.7Zm1.5,3.4-1.7,22.3a1.52,1.52,0,0,1-1.5,1.4h-0.1a1.48,1.48,0,0,1-1.4-1.6l1.7-22.3A1.5,1.5,0,1,1,40.22,85.51Zm8.7-.2,1.7,22.3a1.62,1.62,0,0,1-1.4,1.6h-0.1a1.6,1.6,0,0,1-1.5-1.4l-1.7-22.3a1.62,1.62,0,0,1,1.4-1.6A1.42,1.42,0,0,1,48.92,85.31Zm-4.3.1v22.7a1.5,1.5,0,0,1-3,0V85.41A1.5,1.5,0,0,1,44.62,85.41Z" fill="#333"/></svg>