<?xml version="1.0" encoding="utf-8"?>
<!-- Generator: Adobe Illustrator 19.2.1, SVG Export Plug-In . SVG Version: 6.00 Build 0)  -->
<svg version="1.1" id="Layer_1" xmlns="http://www.w3.org/2000/svg" xmlns:xlink="http://www.w3.org/1999/xlink" x="0px" y="0px"
	 viewBox="0 0 170 140" style="enable-background:new 0 0 170 140;" xml:space="preserve">
<style type="text/css">
	.st0{display:none;}
	.st1{display:inline;}
	.st2{fill:none;stroke:#221E1F;stroke-width:2;stroke-linecap:round;}
	.st3{fill:none;stroke:#221E1F;stroke-width:2;stroke-linecap:round;stroke-linejoin:round;}
	.st4{fill:none;stroke:#030404;stroke-width:2;stroke-linecap:round;stroke-linejoin:round;}
</style>
<g id="Layer_1_1_" class="st0">
	<title>veterans</title>
	<desc>Created with Sketch.</desc>
	<g id="Page-1" class="st1">
		<g id="veterans">
			<g id="Group" transform="translate(32.000000, 33.000000)">
				<path id="Stroke-1" class="st2" d="M30.1,48.9L9.5,54.6C4.4,56.5,1,61.4,1,66.8V75h75v-8.2c0-5.4-3.4-10.3-8.5-12.2l-20.6-5.7"
					/>
				<path id="Stroke-3" class="st2" d="M28.7,29.4c0-1.8,1.5-1.6,3.3-1.6s3.3-0.2,3.3,1.6"/>
				<path id="Stroke-5" class="st2" d="M41.7,29.4c0-1.8,1.5-1.6,3.3-1.6s3.3-0.2,3.3,1.6"/>
				<path id="Stroke-7" class="st3" d="M21.7,19.6v6.3c-4.9,0-4.4,10,0.5,10c0,9.8,11.4,16.4,16.3,16.4"/>
				<path id="Stroke-9" class="st3" d="M55.3,19.6v6.3c4.9,0,4.4,10-0.5,10c0,9.8-11.4,16.4-16.3,16.4"/>
				<polygon id="Stroke-11" class="st3" points="52.7,59.5 60.5,59.5 60.5,65.9 56.6,68.5 52.7,65.9 				"/>
				<polygon id="Stroke-13" class="st3" points="35.9,5.2 41.1,5.2 41.1,7.8 38.5,9.8 35.9,7.8 				"/>
				<path id="Stroke-15" class="st3" d="M38.5,23.3c-19.6,0-19.4-7.8-19.4-7.8h38.8C57.9,15.5,58,23.3,38.5,23.3L38.5,23.3z"/>
				<path id="Stroke-17" class="st3" d="M60.5,15.5h-44V9c11.4,0,10.6-9,22-9s12.2,9,22,9V15.5L60.5,15.5z"/>
				<path id="Stroke-19" class="st3" d="M34.6,51.4V75"/>
				<path id="Stroke-21" class="st3" d="M42.4,51.4V75"/>
				<polygon id="Stroke-23" class="st4" points="87.1,9 92.3,23.2 106.5,23.2 95.1,31.8 100.1,46.5 87.1,38.7 74.2,46.5 78.8,31.8 
					67.8,23.2 82,23.2 				"/>
			</g>
		</g>
	</g>
</g>
<g id="Layer_2">
	<g>
		<path d="M138,49.9L85.8,23.5c-0.4-0.3-0.9-0.3-1.4,0L32.2,49.9c-0.5,0.3-0.8,0.8-0.8,1.4s0.3,1.1,0.8,1.4l9.3,4.9v5.9
			c-2.5,0.7-4.4,3-4.4,5.7c0,0.8,0.7,1.5,1.5,1.5c0.8,0,1.5-0.7,1.5-1.5c0-1.5,1.3-2.8,2.8-2.8s2.8,1.3,2.8,2.8
			c0,0.8,0.7,1.5,1.5,1.5c0.8,0,1.5-0.7,1.5-1.5c0-2.7-1.9-5-4.4-5.7v-4.3l11,5.9c-0.2,0.3-0.3,0.5-0.3,0.8V78
			c0,4.8,3.2,9.7,8.9,13.4c5.8,3.7,13.1,5.9,20.7,5.9s15-2,20.7-5.9c5.7-3.7,8.9-8.6,8.9-13.4V64.9l23.3-12.3
			c0.5-0.3,0.8-0.8,0.8-1.4C138.8,50.6,138.5,50.1,138,49.9z M111.7,77.9c0,7.5-11.6,16.1-26.6,16.1s-26.6-8.7-26.6-16.1V66.5
			l25.9,13.7c0.3,0.1,0.5,0.2,0.7,0.2c0.3,0,0.5-0.1,0.7-0.2l25.9-13.7V77.9z M85.1,77.1L48,57.4l31.7-4.5c0.8,1.8,2.9,3.1,5.3,3.1
			c3.1,0,5.8-2.1,5.8-4.8s-2.5-4.8-5.8-4.8c-2.5,0-4.8,1.4-5.5,3.4L43.3,55l-7-3.7l48.8-24.8l48.8,24.7L85.1,77.1z M82.5,51.2
			c0-0.8,1.1-1.7,2.6-1.7c1.5,0,2.6,0.8,2.6,1.7c0,0.8-1.1,1.7-2.6,1.7C83.6,52.9,82.5,52,82.5,51.2z"/>
		<path d="M38.7,75h8.7c0.8,0,1.5-0.7,1.5-1.5s-0.7-1.5-1.5-1.5h-8.7c-0.8,0-1.5,0.7-1.5,1.5S37.8,75,38.7,75z"/>
		<path d="M38.8,76.8c-0.8-0.1-1.6,0.6-1.6,1.4l-1.7,22.3c-0.1,0.8,0.6,1.6,1.4,1.6H37c0.8,0,1.4-0.6,1.5-1.4l1.7-22.3
			C40.3,77.6,39.7,76.9,38.8,76.8z"/>
		<path d="M47.3,76.8c-0.8,0.1-1.4,0.8-1.4,1.6l1.7,22.3c0.1,0.8,0.8,1.4,1.5,1.4h0.1c0.8-0.1,1.4-0.8,1.4-1.6l-1.7-22.3
			C48.9,77.4,48.2,76.7,47.3,76.8z"/>
		<path d="M43.1,76.8c-0.8,0-1.5,0.7-1.5,1.5v22.7c0,0.8,0.7,1.5,1.5,1.5c0.8,0,1.5-0.7,1.5-1.5V78.3C44.6,77.5,43.9,76.8,43.1,76.8
			z"/>
	</g>
</g>
</svg>
