<svg xmlns="http://www.w3.org/2000/svg" width="156" height="156" viewBox="0 0 156 156" preserveAspectRatio="xMinYMid" aria-hidden="true"><path d="M5.94,56.08H5.51V55.34a2.47,2.47,0,0,1-1.38-.46,2,2,0,0,1-.72-1.24V53.16H4a1.78,1.78,0,0,0,.11.63,1.56,1.56,0,0,0,.3.51,1.61,1.61,0,0,0,.48.36,1.56,1.56,0,0,0,.61.16V51.87a6.87,6.87,0,0,1-.76-0.23,2.23,2.23,0,0,1-.62-0.34,1.5,1.5,0,0,1-.42-0.52A1.78,1.78,0,0,1,3.54,50a1.73,1.73,0,0,1,.16-0.75,1.71,1.71,0,0,1,.42-0.57,1.87,1.87,0,0,1,.63-0.36,2.13,2.13,0,0,1,.76-0.11V47.63H5.94v0.6a2.38,2.38,0,0,1,.75.11,1.73,1.73,0,0,1,.6.33,1.57,1.57,0,0,1,.4.55,2,2,0,0,1,.17.74H7.24a1.13,1.13,0,0,0-.1-0.49,1.18,1.18,0,0,0-.27-0.37,1.26,1.26,0,0,0-.4-0.25,1.37,1.37,0,0,0-.52-0.09v2.61c0.32,0.08.61,0.17,0.87,0.26a2.18,2.18,0,0,1,.67.36,1.5,1.5,0,0,1,.43.58,2.37,2.37,0,0,1,.16.91,1.57,1.57,0,0,1-.19.78,1.87,1.87,0,0,1-.49.57,2.22,2.22,0,0,1-.69.36,2.62,2.62,0,0,1-.77.14v0.76ZM5.5,48.76a1.48,1.48,0,0,0-.51.09,1.3,1.3,0,0,0-.42.25,1.15,1.15,0,0,0-.28.39,1.19,1.19,0,0,0-.1.5,1.25,1.25,0,0,0,.1.54,1,1,0,0,0,.28.35,1.52,1.52,0,0,0,.42.24L5.5,51.28V48.76Zm0.44,6a1.53,1.53,0,0,0,.57-0.11A1.56,1.56,0,0,0,7,54.41,1.34,1.34,0,0,0,7.34,54a1.53,1.53,0,0,0,0-1.18A1.09,1.09,0,0,0,7,52.39a1.61,1.61,0,0,0-.47-0.24A5.89,5.89,0,0,0,5.94,52v2.82Zm4.68-3.5a5.58,5.58,0,0,0,.8,0A1.74,1.74,0,0,0,12.06,51a1.1,1.1,0,0,0,.41-0.4A1.31,1.31,0,0,0,12.62,50a1.21,1.21,0,0,0-.12-0.55,1.06,1.06,0,0,0-.31-0.38,1.36,1.36,0,0,0-.47-0.22,2.3,2.3,0,0,0-.57-0.07,1.61,1.61,0,0,0-.6.11,1.33,1.33,0,0,0-.47.3,1.42,1.42,0,0,0-.3.47,1.58,1.58,0,0,0-.11.59H9a2,2,0,0,1,.67-1.55,1.53,1.53,0,0,1,.74-0.37,4.17,4.17,0,0,1,.83-0.08,2.77,2.77,0,0,1,.78.1,1.78,1.78,0,0,1,.62.31,1.52,1.52,0,0,1,.42.53,1.72,1.72,0,0,1,.16.76,1.76,1.76,0,0,1-.25,1,1.56,1.56,0,0,1-.74.61,1.9,1.9,0,0,1,.62.31,1.57,1.57,0,0,1,.37.42,1.5,1.5,0,0,1,.19.49,2.57,2.57,0,0,1,0,.49,2.19,2.19,0,0,1-.15.8,2,2,0,0,1-.43.66,2.11,2.11,0,0,1-.7.45,2.61,2.61,0,0,1-1,.18,4.43,4.43,0,0,1-1-.11,1.77,1.77,0,0,1-.74-0.36A1.68,1.68,0,0,1,9,54.21a3.63,3.63,0,0,1-.23-1H9.42a1.49,1.49,0,0,0,.45,1.13,1.84,1.84,0,0,0,1.25.41,1.87,1.87,0,0,0,.72-0.14,1.72,1.72,0,0,0,.55-0.34,1.48,1.48,0,0,0,.35-0.5,1.37,1.37,0,0,0,.11-0.59,1.41,1.41,0,0,0-.2-0.7,1.27,1.27,0,0,0-.47-0.44,2.05,2.05,0,0,0-.7-0.22,4.39,4.39,0,0,0-.85,0V51.3Zm5,4.14a1.1,1.1,0,0,1-.21.7,1,1,0,0,1-.51.36V56.13a1,1,0,0,0,.23-0.22,0.7,0.7,0,0,0,.11-0.43V55.15H14.92V54.29h0.72v1.16Zm3.74-7.21a2.34,2.34,0,0,1,.88.15,1.86,1.86,0,0,1,.64.41,2.16,2.16,0,0,1,.42.62,3.69,3.69,0,0,1,.25.75,5.56,5.56,0,0,1,.12.81v0.82a8.56,8.56,0,0,1-.1,1.32,3.44,3.44,0,0,1-.36,1.11,2,2,0,0,1-.71.77,2.16,2.16,0,0,1-1.17.28A2.19,2.19,0,0,1,18.17,55a2,2,0,0,1-.72-0.77,3.48,3.48,0,0,1-.35-1.13,9,9,0,0,1-.1-1.35,9.21,9.21,0,0,1,.11-1.25,3.57,3.57,0,0,1,.34-1.13,2.05,2.05,0,0,1,.71-0.83A2.16,2.16,0,0,1,19.37,48.23Zm1.71,3.51a9.32,9.32,0,0,0-.06-1.1,3.35,3.35,0,0,0-.25-1A1.68,1.68,0,0,0,20.25,49a1.44,1.44,0,0,0-.89-0.26,1.33,1.33,0,0,0-.84.26,1.74,1.74,0,0,0-.51.7,3.7,3.7,0,0,0-.27,1,8.46,8.46,0,0,0-.08,1.12A8,8,0,0,0,17.72,53,3,3,0,0,0,18,54a1.4,1.4,0,0,0,1.35.8,1.38,1.38,0,0,0,.9-0.27,1.74,1.74,0,0,0,.52-0.71,3.59,3.59,0,0,0,.24-1A9.82,9.82,0,0,0,21.08,51.74Zm3.75-3.51a2.34,2.34,0,0,1,.88.15,1.86,1.86,0,0,1,.64.41,2.16,2.16,0,0,1,.42.62,3.69,3.69,0,0,1,.25.75,5.56,5.56,0,0,1,.12.81q0,0.42,0,.82a8.56,8.56,0,0,1-.1,1.32,3.44,3.44,0,0,1-.36,1.11A2,2,0,0,1,26,55a2.16,2.16,0,0,1-1.17.28A2.19,2.19,0,0,1,23.61,55a2,2,0,0,1-.72-0.77,3.48,3.48,0,0,1-.27-1.13,9,9,0,0,1-.1-1.35,9.21,9.21,0,0,1,0-1.27,3.57,3.57,0,0,1,.34-1.13,2.05,2.05,0,0,1,.7-0.83A2.16,2.16,0,0,1,24.83,48.23Zm1.73,3.51a9.32,9.32,0,0,0-.06-1.1,3.35,3.35,0,0,0-.25-1A1.68,1.68,0,0,0,25.72,49a1.44,1.44,0,0,0-.89-0.26A1.33,1.33,0,0,0,24,49a1.74,1.74,0,0,0-.51.7,3.7,3.7,0,0,0-.27,1,8.46,8.46,0,0,0-.08,1.12A8,8,0,0,0,23.22,53a3,3,0,0,0,.27.93,1.4,1.4,0,0,0,1.35.8,1.38,1.38,0,0,0,.9-0.27,1.74,1.74,0,0,0,.52-0.71,3.59,3.59,0,0,0,.24-1A9.82,9.82,0,0,0,26.56,51.74Zm3.73-3.51a2.34,2.34,0,0,1,.88.15,1.86,1.86,0,0,1,.64.41,2.16,2.16,0,0,1,.42.62,3.69,3.69,0,0,1,.25.75,5.56,5.56,0,0,1,.12.81v0.82a8.56,8.56,0,0,1-.1,1.32,3.44,3.44,0,0,1-.36,1.11,2,2,0,0,1-.71.77,2.16,2.16,0,0,1-1.17.28A2.19,2.19,0,0,1,29.09,55a2,2,0,0,1-.72-0.77A3.48,3.48,0,0,1,28,53.09a9,9,0,0,1-.1-1.35A9.21,9.21,0,0,1,28,50.49a3.57,3.57,0,0,1,.34-1.13,2.05,2.05,0,0,1,.71-0.83A2.16,2.16,0,0,1,30.29,48.23ZM32,51.74a9.32,9.32,0,0,0-.06-1.1,3.35,3.35,0,0,0-.25-1A1.68,1.68,0,0,0,31.16,49a1.44,1.44,0,0,0-.89-0.26,1.33,1.33,0,0,0-.84.26,1.74,1.74,0,0,0-.51.7,3.7,3.7,0,0,0-.27,1,8.46,8.46,0,0,0-.13,1.15A8,8,0,0,0,28.61,53a3,3,0,0,0,.27.93,1.4,1.4,0,0,0,1.35.8,1.38,1.38,0,0,0,.9-0.27,1.74,1.74,0,0,0,.52-0.71,3.59,3.59,0,0,0,.24-1A9.81,9.81,0,0,0,32,51.74ZM5.94,82H5.51V81.28a2.47,2.47,0,0,1-1.38-.46,2,2,0,0,1-.72-1.24V79.1H4a1.78,1.78,0,0,0,.11.63,1.56,1.56,0,0,0,.3.51,1.61,1.61,0,0,0,.48.36,1.56,1.56,0,0,0,.61.16V77.81a6.87,6.87,0,0,1-.76-0.23,2.23,2.23,0,0,1-.62-0.34,1.48,1.48,0,0,1-.42-0.53A1.77,1.77,0,0,1,3.55,76a1.71,1.71,0,0,1,.58-1.32,1.86,1.86,0,0,1,.63-0.35,2.11,2.11,0,0,1,.76-0.12V73.57H5.94v0.6a2.37,2.37,0,0,1,.75.12,1.72,1.72,0,0,1,.6.33,1.56,1.56,0,0,1,.4.54,2,2,0,0,1,.17.74H7.24a1.13,1.13,0,0,0-.1-0.49A1.19,1.19,0,0,0,6.87,75a1.25,1.25,0,0,0-.4-0.25,1.36,1.36,0,0,0-.52-0.08v2.61c0.32,0.08.61,0.17,0.87,0.26a2.18,2.18,0,0,1,.67.36,1.5,1.5,0,0,1,.43.58,2.37,2.37,0,0,1,.16.91,1.57,1.57,0,0,1-.19.77,1.87,1.87,0,0,1-.49.57,2.22,2.22,0,0,1-.69.36,2.62,2.62,0,0,1-.77.14V82ZM5.5,74.7a1.47,1.47,0,0,0-.51.09,1.28,1.28,0,0,0-.42.24,1.16,1.16,0,0,0-.28.39,1.19,1.19,0,0,0-.1.5,1.25,1.25,0,0,0,.1.54,1,1,0,0,0,.28.36A1.51,1.51,0,0,0,5,77L5.5,77.21V74.7Zm0.44,6a1.53,1.53,0,0,0,.57-0.11A1.56,1.56,0,0,0,7,80.35a1.34,1.34,0,0,0,.35-0.41,1.53,1.53,0,0,0,0-1.18A1.09,1.09,0,0,0,7,78.36a1.61,1.61,0,0,0-.47-0.24A5.89,5.89,0,0,0,5.94,78v2.78Zm3.19-4.31a2.6,2.6,0,0,1,.16-0.92,2,2,0,0,1,1.17-1.18,2.79,2.79,0,0,1,1.85,0,2,2,0,0,1,.67.4,1.66,1.66,0,0,1,.4.61,2.18,2.18,0,0,1,0,1.56,2.26,2.26,0,0,1-.4.63,3.16,3.16,0,0,1-.57.49l-0.66.41-0.66.37a4.4,4.4,0,0,0-.58.37l-0.32.27a2.28,2.28,0,0,0-.28.3,1.48,1.48,0,0,0-.21.36,1.36,1.36,0,0,0-.09.45h3.86v0.53H8.89A4.16,4.16,0,0,1,9,80.21a1.88,1.88,0,0,1,.43-0.79,5.19,5.19,0,0,1,.76-0.71,8.25,8.25,0,0,1,.76-0.52l0.71-.42a3.55,3.55,0,0,0,.59-0.41,1.75,1.75,0,0,0,.4-0.51,1.5,1.5,0,0,0,.18-0.73,1.46,1.46,0,0,0-.12-0.6,1.33,1.33,0,0,0-.32-0.45,1.35,1.35,0,0,0-.48-0.28,1.85,1.85,0,0,0-.6-0.09,1.35,1.35,0,0,0-.62.14,1.56,1.56,0,0,0-.48.37,1.68,1.68,0,0,0-.3.55,1.73,1.73,0,0,0-.09.67H9.13Zm6.5,4.95a1.1,1.1,0,0,1-.21.7,1,1,0,0,1-.51.36V82.07a1,1,0,0,0,.23-0.18,0.7,0.7,0,0,0,.11-0.43V81.09H14.92V80.23h0.72v1.16Zm3.74-7.21a2.33,2.33,0,0,1,.88.16,1.85,1.85,0,0,1,.64.41,2.15,2.15,0,0,1,.42.62,3.71,3.71,0,0,1,.25.75,5.57,5.57,0,0,1,.12.81v0.82a8.56,8.56,0,0,1-.1,1.32,3.43,3.43,0,0,1-.36,1.11,2,2,0,0,1-.71.77,2.16,2.16,0,0,1-1.17.28,2.19,2.19,0,0,1-1.14-.3,2,2,0,0,1-.72-0.77A3.48,3.48,0,0,1,17.13,79a9,9,0,0,1-.1-1.35,9.22,9.22,0,0,1,.09-1.29,3.57,3.57,0,0,1,.34-1.12,2.05,2.05,0,0,1,.71-0.8A2.16,2.16,0,0,1,19.37,74.17Zm1.71,3.51a9.32,9.32,0,0,0-.06-1.1,3.34,3.34,0,0,0-.25-1,1.68,1.68,0,0,0-.53-0.68,1.44,1.44,0,0,0-.89-0.26,1.33,1.33,0,0,0-.84.26,1.74,1.74,0,0,0-.51.7,3.7,3.7,0,0,0-.27,1,8.45,8.45,0,0,0-.08,1.12A8,8,0,0,0,17.72,79a3,3,0,0,0,.27.93,1.4,1.4,0,0,0,1.35.8,1.38,1.38,0,0,0,.9-0.27,1.74,1.74,0,0,0,.52-0.71,3.59,3.59,0,0,0,.24-1A9.82,9.82,0,0,0,21.08,77.69Zm3.75-3.51a2.33,2.33,0,0,1,.88.16,1.85,1.85,0,0,1,.64.41,2.15,2.15,0,0,1,.42.62,3.71,3.71,0,0,1,.25.75,5.57,5.57,0,0,1,.12.81q0,0.42,0,.82a8.56,8.56,0,0,1-.1,1.32,3.43,3.43,0,0,1-.36,1.11,2,2,0,0,1-.71.77,2.16,2.16,0,0,1-1.17.28,2.19,2.19,0,0,1-1.19-.3,2,2,0,0,1-.72-0.77,3.48,3.48,0,0,1-.27-1.1,9,9,0,0,1-.1-1.35,9.22,9.22,0,0,1,.09-1.29A3.57,3.57,0,0,1,23,75.29a2.05,2.05,0,0,1,.65-0.81A2.16,2.16,0,0,1,24.83,74.17Zm1.73,3.51a9.32,9.32,0,0,0-.06-1.1,3.34,3.34,0,0,0-.25-1,1.68,1.68,0,0,0-.53-0.68,1.44,1.44,0,0,0-.89-0.26,1.33,1.33,0,0,0-.84.26,1.74,1.74,0,0,0-.51.7,3.7,3.7,0,0,0-.27,1,8.45,8.45,0,0,0-.08,1.12A8,8,0,0,0,23.2,79a3,3,0,0,0,.27.93,1.4,1.4,0,0,0,1.35.8,1.38,1.38,0,0,0,.9-0.27,1.74,1.74,0,0,0,.52-0.71,3.59,3.59,0,0,0,.24-1A9.82,9.82,0,0,0,26.56,77.69Zm3.73-3.51a2.33,2.33,0,0,1,.88.16,1.85,1.85,0,0,1,.64.41,2.15,2.15,0,0,1,.42.62,3.71,3.71,0,0,1,.25.75,5.57,5.57,0,0,1,.12.81v0.82a8.56,8.56,0,0,1-.1,1.32,3.43,3.43,0,0,1-.36,1.11,2,2,0,0,1-.67.75,2.16,2.16,0,0,1-1.17.28,2.19,2.19,0,0,1-1.18-.28,2,2,0,0,1-.72-0.77A3.48,3.48,0,0,1,28,79a9,9,0,0,1-.1-1.35A9.22,9.22,0,0,1,28,76.38a3.57,3.57,0,0,1,.34-1.12,2.05,2.05,0,0,1,.71-0.8A2.16,2.16,0,0,1,30.29,74.17ZM32,77.69a9.32,9.32,0,0,0-.06-1.1,3.34,3.34,0,0,0-.25-1,1.68,1.68,0,0,0-.53-0.68,1.44,1.44,0,0,0-.89-0.26,1.33,1.33,0,0,0-.84.26,1.74,1.74,0,0,0-.51.7,3.7,3.7,0,0,0-.27,1,8.45,8.45,0,0,0-.13,1.15,8,8,0,0,0,.14,1.2,3,3,0,0,0,.27.93,1.4,1.4,0,0,0,1.35.8,1.38,1.38,0,0,0,.9-0.27,1.74,1.74,0,0,0,.52-0.71,3.59,3.59,0,0,0,.24-1A9.81,9.81,0,0,0,32,77.69ZM5.94,108H5.51v-0.75a2.47,2.47,0,0,1-1.38-.46,2,2,0,0,1-.72-1.24V105H4a1.78,1.78,0,0,0,.11.63,1.56,1.56,0,0,0,.3.51,1.61,1.61,0,0,0,.48.36,1.56,1.56,0,0,0,.61.16v-2.94a6.87,6.87,0,0,1-.76-0.23,2.23,2.23,0,0,1-.62-0.34,1.48,1.48,0,0,1-.42-0.53,1.77,1.77,0,0,1-.15-0.78,1.71,1.71,0,0,1,.59-1.33,1.86,1.86,0,0,1,.63-0.35,2.11,2.11,0,0,1,.76-0.12V99.56H5.94v0.6a2.37,2.37,0,0,1,.75.12,1.72,1.72,0,0,1,.6.33,1.56,1.56,0,0,1,.4.54,2,2,0,0,1,.17.74H7.24a1.13,1.13,0,0,0-.1-0.49A1.19,1.19,0,0,0,6.87,101a1.25,1.25,0,0,0-.4-0.25,1.36,1.36,0,0,0-.52-0.14v2.61c0.32,0.08.61,0.17,0.87,0.26a2.18,2.18,0,0,1,.67.36,1.5,1.5,0,0,1,.42.6,2.37,2.37,0,0,1,.16.91,1.57,1.57,0,0,1-.19.78,1.87,1.87,0,0,1-.49.57,2.22,2.22,0,0,1-.69.36,2.62,2.62,0,0,1-.77.14V108h0ZM5.5,100.64a1.47,1.47,0,0,0-.51.09,1.28,1.28,0,0,0-.42.25,1.16,1.16,0,0,0-.28.39,1.19,1.19,0,0,0-.1.5,1.25,1.25,0,0,0,.1.54,1,1,0,0,0,.28.36A1.51,1.51,0,0,0,5,103l0.51,0.17v-2.52Zm0.44,6a1.53,1.53,0,0,0,.57-0.11A1.56,1.56,0,0,0,7,106.29a1.34,1.34,0,0,0,.32-0.45,1.53,1.53,0,0,0,0-1.18A1.09,1.09,0,0,0,7,104.27,1.61,1.61,0,0,0,6.52,104a5.89,5.89,0,0,0-.59-0.16v2.82h0Zm5.48-4.8H9.64v-0.36l0.71-.08a1.62,1.62,0,0,0,.56-0.19,1.15,1.15,0,0,0,.4-0.4,2,2,0,0,0,.25-0.7H12V107H11.42v-5.14Zm4.21,5.44a1.1,1.1,0,0,1-.21.7,1,1,0,0,1-.51.36V108a1,1,0,0,0,.23-0.22,0.7,0.7,0,0,0,.11-0.43V107H14.92v-0.86h0.72v1.16h0Zm3.74-7.21a2.33,2.33,0,0,1,.88.16,1.85,1.85,0,0,1,.64.41,2.15,2.15,0,0,1,.42.62,3.71,3.71,0,0,1,.25.75,5.57,5.57,0,0,1,.12.81v0.82a8.56,8.56,0,0,1-.1,1.32,3.44,3.44,0,0,1-.36,1.11,2,2,0,0,1-.71.77,2.16,2.16,0,0,1-1.17.28,2.19,2.19,0,0,1-1.17-.28,2,2,0,0,1-.72-0.77A3.48,3.48,0,0,1,17.1,105a9,9,0,0,1-.1-1.35,9.22,9.22,0,0,1,.09-1.29,3.57,3.57,0,0,1,.34-1.12,2.05,2.05,0,0,1,.71-0.8A2.16,2.16,0,0,1,19.37,100.11Zm1.71,3.51a9.32,9.32,0,0,0-.06-1.1,3.34,3.34,0,0,0-.25-1,1.68,1.68,0,0,0-.53-0.68,1.44,1.44,0,0,0-.89-0.26,1.33,1.33,0,0,0-.84.26,1.74,1.74,0,0,0-.51.7,3.7,3.7,0,0,0-.27,1,8.45,8.45,0,0,0-.08,1.12,8,8,0,0,0,.09,1.22,3,3,0,0,0,.27.93,1.4,1.4,0,0,0,1.35.8,1.38,1.38,0,0,0,.9-0.27,1.74,1.74,0,0,0,.52-0.71,3.59,3.59,0,0,0,.24-1A9.82,9.82,0,0,0,21.08,103.63Zm3.75-3.51a2.33,2.33,0,0,1,.88.16,1.85,1.85,0,0,1,.64.41,2.15,2.15,0,0,1,.42.62A3.71,3.71,0,0,1,27,102a5.57,5.57,0,0,1,.12.81q0,0.42,0,.82A8.56,8.56,0,0,1,27,105a3.44,3.44,0,0,1-.36,1.11,2,2,0,0,1-.71.77,2.16,2.16,0,0,1-1.17.28,2.19,2.19,0,0,1-1.17-.28,2,2,0,0,1-.72-0.77,3.48,3.48,0,0,1-.35-1.13,9,9,0,0,1-.1-1.35,9.22,9.22,0,0,1,.09-1.29,3.57,3.57,0,0,1,.34-1.12,2.05,2.05,0,0,1,.72-0.8A2.16,2.16,0,0,1,24.83,100.11Zm1.73,3.51a9.32,9.32,0,0,0-.06-1.1,3.34,3.34,0,0,0-.25-1,1.68,1.68,0,0,0-.53-0.68,1.44,1.44,0,0,0-.89-0.26,1.33,1.33,0,0,0-.84.26,1.74,1.74,0,0,0-.51.7,3.7,3.7,0,0,0-.27,1,8.45,8.45,0,0,0-.08,1.12,8,8,0,0,0,.09,1.22,3,3,0,0,0,.27.93,1.4,1.4,0,0,0,1.35.8,1.38,1.38,0,0,0,.9-0.27,1.74,1.74,0,0,0,.52-0.71,3.59,3.59,0,0,0,.24-1A9.82,9.82,0,0,0,26.56,103.63Zm3.73-3.51a2.33,2.33,0,0,1,.88.16,1.85,1.85,0,0,1,.64.41,2.15,2.15,0,0,1,.42.62,3.71,3.71,0,0,1,.25.75,5.57,5.57,0,0,1,.12.81v0.82a8.56,8.56,0,0,1-.1,1.32,3.44,3.44,0,0,1-.36,1.11,2,2,0,0,1-.71.77,2.16,2.16,0,0,1-1.17.28,2.19,2.19,0,0,1-1.17-.28,2,2,0,0,1-.72-0.77A3.48,3.48,0,0,1,28,105a9,9,0,0,1-.1-1.35,9.22,9.22,0,0,1,.09-1.29,3.57,3.57,0,0,1,.34-1.12,2.05,2.05,0,0,1,.71-0.8A2.16,2.16,0,0,1,30.29,100.11ZM32,103.63a9.32,9.32,0,0,0-.06-1.1,3.34,3.34,0,0,0-.25-1,1.68,1.68,0,0,0-.53-0.68,1.44,1.44,0,0,0-.89-0.26,1.33,1.33,0,0,0-.84.26,1.74,1.74,0,0,0-.51.7,3.7,3.7,0,0,0-.27,1,8.45,8.45,0,0,0-.08,1.12,8,8,0,0,0,.09,1.22,3,3,0,0,0,.27.93,1.4,1.4,0,0,0,1.35.8,1.38,1.38,0,0,0,.9-0.27,1.74,1.74,0,0,0,.52-0.71,3.59,3.59,0,0,0,.24-1A9.81,9.81,0,0,0,32,103.63ZM92.32,17.26a0.77,0.77,0,0,0-.77.77v4.6a0.77,0.77,0,0,0,1.53,0V18A0.77,0.77,0,0,0,92.32,17.26ZM104,6.52a0.77,0.77,0,0,0-.77.77v4.6a0.77,0.77,0,1,0,1.53,0h0V7.3A0.77,0.77,0,0,0,104,6.52h0ZM92.32,14.17a6.13,6.13,0,1,0,6.13,6.13A6.13,6.13,0,0,0,92.32,14.17Zm0,10.8a4.6,4.6,0,1,1,4.6-4.6A4.6,4.6,0,0,1,92.32,25ZM104,3.45a6.13,6.13,0,1,0,6.13,6.13h0A6.14,6.14,0,0,0,104,3.45Zm0,10.75a4.6,4.6,0,1,1,4.6-4.6,4.6,4.6,0,0,1-4.6,4.6v0Zm4,112a1.34,1.34,0,0,0,.48-0.4,1.77,1.77,0,0,0,.27-0.6,2.83,2.83,0,0,0,.09-0.71,3.64,3.64,0,0,0,0-.53,1.85,1.85,0,0,0-.16-0.53,1.16,1.16,0,0,0-.32-0.41,0.81,0.81,0,0,0-.52-0.17,0.74,0.74,0,0,0-.55.22,1.73,1.73,0,0,0-.35.57,5.83,5.83,0,0,0-.25.8q-0.11.45-.24,0.9a8.12,8.12,0,0,1-.28.92,3.17,3.17,0,0,1-.44.8,2,2,0,0,1-1.66.79,2.21,2.21,0,0,1-1.13-.27,2.51,2.51,0,0,1-.8-0.73,3.18,3.18,0,0,1-.47-1,4.33,4.33,0,0,1-.16-1.13,5.37,5.37,0,0,1,.15-1.27,3.16,3.16,0,0,1,.48-1.08,2.4,2.4,0,0,1,.84-0.75,2.59,2.59,0,0,1,1.25-.27v1.72a1.5,1.5,0,0,0-.63.16,1,1,0,0,0-.39.36,1.51,1.51,0,0,0-.2.51,3.15,3.15,0,0,0-.06.63,2.15,2.15,0,0,0,0,.45,1.19,1.19,0,0,0,.17.4,1,1,0,0,0,.29.3,0.8,0.8,0,0,0,.45.12,0.76,0.76,0,0,0,.4-0.1,0.84,0.84,0,0,0,.28-0.37,4.76,4.76,0,0,0,.26-0.77l0.33-1.28a3.35,3.35,0,0,1,.17-0.66,3.14,3.14,0,0,1,.39-0.83,2.48,2.48,0,0,1,.73-0.72,2.05,2.05,0,0,1,1.16-.3,2.56,2.56,0,0,1,1.07.23,2.32,2.32,0,0,1,.85.67,3.19,3.19,0,0,1,.56,1.1,5.19,5.19,0,0,1,.2,1.51,5.29,5.29,0,0,1-.17,1.34,3.38,3.38,0,0,1-.54,1.16,2.62,2.62,0,0,1-.93.8,2.77,2.77,0,0,1-1.34.28v-1.79A1.54,1.54,0,0,0,108,126.22Zm-4.75-5.58h-1.55v-6.87h1.55v2.47h6.87v1.85h-6.87v2.55Zm-1.55-11,8.41-3.15v2l-1.87.64v3.14l1.87,0.66v1.86l-8.41-3.18v-1.93Zm5.16-.11-3.08,1.06h0l3.08,1.1v-2.16Zm-3.61-2h-1.55v-6.87h1.55v2.52h6.87v1.85h-6.87v2.5ZM101.72,93.4h1.55v4.44h1.81V93.77h1.43v4.07h2.06V93.31h1.55v6.38h-8.41V93.4h0Zm14,28.84a1.86,1.86,0,0,0-.46.41,2,2,0,0,0-.42,1.22,2.17,2.17,0,0,0,.25,1.06,2,2,0,0,0,.65.71,2.83,2.83,0,0,0,.92.39,4.6,4.6,0,0,0,1.07.13,4.28,4.28,0,0,0,1-.13,2.76,2.76,0,0,0,.9-0.39,2,2,0,0,0,.64-0.71,2.16,2.16,0,0,0,.25-1.06,1.71,1.71,0,0,0-.52-1.33,2.39,2.39,0,0,0-1.36-.58v-1.79a4.27,4.27,0,0,1,1.42.36,3.44,3.44,0,0,1,1.08.78,3.29,3.29,0,0,1,.69,1.13,4.14,4.14,0,0,1,.24,1.42,4.3,4.3,0,0,1-.33,1.74,3.7,3.7,0,0,1-.92,1.31,4.08,4.08,0,0,1-1.38.81,5.07,5.07,0,0,1-1.72.28,5.25,5.25,0,0,1-1.75-.28,4.19,4.19,0,0,1-1.4-.81,3.71,3.71,0,0,1-1-1.31,4.51,4.51,0,0,1-.14-3.05,3.57,3.57,0,0,1,.58-1.11,3.15,3.15,0,0,1,1-.8,3.37,3.37,0,0,1,1.3-.4V122A1.53,1.53,0,0,0,115.74,122.24ZM116,119a4.18,4.18,0,0,1-1.4-.81,3.72,3.72,0,0,1-1-1.31,4.59,4.59,0,0,1,0-3.48,3.74,3.74,0,0,1,1-1.3,4.22,4.22,0,0,1,1.4-.81,5.27,5.27,0,0,1,1.75-.28,5.09,5.09,0,0,1,1.72.28,4.11,4.11,0,0,1,1.38.81,3.73,3.73,0,0,1,.92,1.3,4.67,4.67,0,0,1,0,3.48,3.71,3.71,0,0,1-.92,1.31,4.08,4.08,0,0,1-1.38.81,5,5,0,0,1-1.72.28A5.22,5.22,0,0,1,116,119Zm2.78-1.69a2.78,2.78,0,0,0,.9-0.39,2,2,0,0,0,.64-0.71,2.44,2.44,0,0,0,0-2.12,2,2,0,0,0-.64-0.71,2.76,2.76,0,0,0-.9-0.39,4.28,4.28,0,0,0-1-.13,4.6,4.6,0,0,0-1.07.13,2.83,2.83,0,0,0-.92.39,2,2,0,0,0-.65.71,2.44,2.44,0,0,0,0,2.12,2,2,0,0,0,.65.71,2.85,2.85,0,0,0,.92.39,4.59,4.59,0,0,0,1.07.13,4.28,4.28,0,0,0,1-.13h0Zm-5.26-9.41h6.87v-4.1h1.55v5.95h-8.41v-1.85h0Zm0-7h6.87v-4.1h1.55v5.95h-8.41v-1.85h0Zm0-11.43h1.55v4.44h1.81V89.85h1.43v4.07h2.06V89.39h1.55v6.38h-8.41V89.48h0Zm8.34-6.32a3.09,3.09,0,0,1,.26,1.22,4.31,4.31,0,0,1-.33,1.74,3.73,3.73,0,0,1-.92,1.31,4.11,4.11,0,0,1-1.38.81,5.07,5.07,0,0,1-1.72.28,5.25,5.25,0,0,1-1.75-.28,4.22,4.22,0,0,1-1.4-.81,3.74,3.74,0,0,1-1-1.31,4.24,4.24,0,0,1-.34-1.74,4.09,4.09,0,0,1,.2-1.26A3.55,3.55,0,0,1,114,82a3.09,3.09,0,0,1,2.2-1.2v1.77a1.77,1.77,0,0,0-1.06.64,1.85,1.85,0,0,0-.35,1.14,2.17,2.17,0,0,0,.25,1.06,2,2,0,0,0,.65.71,2.85,2.85,0,0,0,.92.39,4.6,4.6,0,0,0,1.07.13,4.28,4.28,0,0,0,1-.13,2.78,2.78,0,0,0,.9-0.39,2,2,0,0,0,.64-0.71,2.16,2.16,0,0,0,.25-1.06,1.81,1.81,0,0,0-1.64-2h-0.17v1.86h-1.37V80.74h4.54V81.9l-1,.19A2.77,2.77,0,0,1,121.85,83.16ZM113.5,72.91h1.55v4.44h1.81V73.28h1.43v4.07h2.06V72.82h1.55V79.2h-8.41V72.91h0ZM153,54.41v-2H129.77v-5.1h-38v5.1H72.18A7.85,7.85,0,0,1,74,49.4c1.06-.89,2.94-1.25,4.74-1.59h0.09c2.51-.49,3.8-0.83,4.3-1.48l0.09-.12,0-.14c0.2-.55.11-1.39-1-4.28-0.64-1.75-1.35-3.74-1-5.18a13,13,0,0,1,2.49-3.93L84,32.48c1.68-2.13,2.41-3.23,2.33-4.09V28.21a2.76,2.76,0,0,0-1-1.21l-0.12-.07-0.18,0a0.91,0.91,0,0,1-.44-0.33l-0.07-.15-0.14-.09-1.57-1-0.11-.07c-1.61-1-3.13-1.89-3.8-3s-0.7-2.94-.74-4.82V17.28c0-2.53-.16-3.93-0.68-4.54l-0.27-.33H76.8a4.76,4.76,0,0,0-1-.09,21,21,0,0,0-2.94.31H72.55c-1.72.27-3.84,0.55-5,.14S65.12,11,63.86,9.51c-1.67-2-2.66-2.94-3.48-3.06H60.1c-0.72.11-1.51,0.82-3.46,3.09-1.26,1.44-2.44,2.81-3.71,3.28a4.76,4.76,0,0,1-1.64.24,21.71,21.71,0,0,1-3.13-.33H47.91a20.75,20.75,0,0,0-3.22-.38,2.86,2.86,0,0,0-1.39.25l-0.14.08-0.1.12c-0.47.54-.63,1.6-0.67,4.55v0.09c0,1.89-.06,3.68-0.74,4.85s-2.14,2-3.73,3l-0.2.12c-2.24,1.33-3.34,2.1-3.58,2.89v0.2c-0.07.78,0.54,1.81,2.5,4.25a13.07,13.07,0,0,1,2.48,3.93c0.39,1.39-.27,3.23-1,5.18-1.06,2.77-1.14,3.75-.93,4.27v0.13l0.14,0.11c0.47,0.62,1.67,1,4.18,1.43h0.19c1.82,0.34,3.69.7,4.74,1.58a8,8,0,0,1,1.86,3.1H45.21v2h3.93c0.8,2,1.33,3.08,2,3.43l0.2,0.1h0.22c0.9,0,2.19-.63,4.09-1.71h0.06A24.67,24.67,0,0,1,58.12,55h0.24a5.2,5.2,0,0,1,1.76-.56h0.32a11.87,11.87,0,0,1,4.45,1.84l0.27,0.13a10.25,10.25,0,0,0,3.78,1.54h0.31l0.21-.11c0.4-.22.91-0.69,2-3.41h20.4v24H45.21v2h46.6v24h-2v-4h-36v4H45.21v2h8.62v13.12l-9,4.45v8.83H3v2H153v-2H138.73V122.29l-9-4.45V106.31H153v-2H129.77v-24H153v-2H129.77v-24H153Zm-82.84-2L70,52.88l-0.1.25c-0.19.51-.35,0.92-0.5,1.29a12,12,0,0,1-.76,1.6A19.63,19.63,0,0,1,66,54.76l-0.3-.17-0.3-.18c-1.77-1-3.45-1.87-5.19-1.87a6.87,6.87,0,0,0-2.5.56h0a1.82,1.82,0,0,0-.35.14A24.38,24.38,0,0,0,55,54.41l-0.27.15H54.69A19.89,19.89,0,0,1,51.84,56a12.63,12.63,0,0,1-.75-1.55c-0.2-.48-0.37-1-0.47-1.19V53.1l-0.29-.65a10.8,10.8,0,0,0-2.69-4.51c-1.42-1.19-3.54-1.59-5.58-2H41.89A24.53,24.53,0,0,1,39,45.29a17.67,17.67,0,0,1,.87-2.86c0.8-2.23,1.56-4.34,1-6.31A14.21,14.21,0,0,0,38,31.56a19.83,19.83,0,0,1-2-2.82,19.83,19.83,0,0,1,2.7-1.82l0.18-.11c1.81-1.09,3.5-2.12,4.38-3.67a11.92,11.92,0,0,0,1-5.74V17.33a22.41,22.41,0,0,1,.2-3.16h0.26a20.19,20.19,0,0,1,2.94.35h0.26a23,23,0,0,0,3.39.35,6.55,6.55,0,0,0,2.28-.35c1.72-.63,3.05-2.17,4.51-3.84a21.38,21.38,0,0,1,2.18-2.31,20.32,20.32,0,0,1,2.23,2.35c1.42,1.63,2.76,3.17,4.49,3.8,1.55,0.56,3.76.3,5.89,0h0.27a18,18,0,0,1,2.94-.29,24.65,24.65,0,0,1,.19,3.14V17.5c0,2.13.08,4.15,1,5.72s2.63,2.59,4.45,3.69l0.08,0c0.4,0.23.9,0.54,1.39,0.85a2.75,2.75,0,0,0,1.08.78l0.23,0.18a21,21,0,0,1-1.85,2.61l-0.16.2a14.1,14.1,0,0,0-2.91,4.54c-0.57,2,.27,4.31,1,6.33a20.22,20.22,0,0,1,1,2.82,22.84,22.84,0,0,1-2.94.73H78.5c-2.05.38-4.16,0.79-5.59,2A10.65,10.65,0,0,0,70.16,52.45Zm-1.31,56.64a3.57,3.57,0,0,1,.58-1.11,3.15,3.15,0,0,1,1-.8,3.37,3.37,0,0,1,1.3-.4v1.79a1.53,1.53,0,0,0-.54.22,1.86,1.86,0,0,0-.46.41,2,2,0,0,0-.42,1.22,2.17,2.17,0,0,0,.25,1.06,2,2,0,0,0,.65.71,2.83,2.83,0,0,0,.92.39,4.6,4.6,0,0,0,1.07.13,4.28,4.28,0,0,0,1-.13,2.76,2.76,0,0,0,.9-0.39,2,2,0,0,0,.64-0.71,2.16,2.16,0,0,0,.25-1.06,1.71,1.71,0,0,0-.52-1.33,2.38,2.38,0,0,0-1.36-.58v-1.79a4.27,4.27,0,0,1,1.42.36,3.44,3.44,0,0,1,1.08.78,3.29,3.29,0,0,1,.69,1.13,4.14,4.14,0,0,1,.24,1.42,4.3,4.3,0,0,1-.33,1.74,3.7,3.7,0,0,1-.92,1.31,4.08,4.08,0,0,1-1.38.81,5.08,5.08,0,0,1-1.72.28,5.25,5.25,0,0,1-1.75-.28,4.19,4.19,0,0,1-1.4-.81,3.71,3.71,0,0,1-1-1.31A4.51,4.51,0,0,1,68.85,109.09Zm8.5,17H70.48v2.5H68.93V121.7h1.55v2.52h6.87v1.85Zm0.06-6.5a2.56,2.56,0,0,1-.46.88,2.27,2.27,0,0,1-.8.63,2.7,2.7,0,0,1-1.19.24H74.2v-1.67h0.37a3.12,3.12,0,0,0,.57,0,1.19,1.19,0,0,0,.44-0.17,0.82,0.82,0,0,0,.28-0.32,1.17,1.17,0,0,0,.11-0.54,1,1,0,0,0-.13-0.57,0.75,0.75,0,0,0-.33-0.28,1.36,1.36,0,0,0-.45-0.11H68.93v-1.85h5.72a5.48,5.48,0,0,1,1,.06,2.22,2.22,0,0,1,1.64,1.23,3.27,3.27,0,0,1,.28,1.49A3.59,3.59,0,0,1,77.41,119.57Zm14.4,13.16h-2V106.31h2v26.42Zm45-9.23v9.22l-43-.28V49.32h34v69.74ZM44.86,40h3.4V30.19q0-.57,0-1.2l-2.42,2a0.85,0.85,0,0,1-.31.17,1.07,1.07,0,0,1-.31,0,0.91,0.91,0,0,1-.42-0.1,0.79,0.79,0,0,1-.28-0.23l-0.91-1.24,5.12-4.35h2.36V40h3v2.15H44.86V40Zm12.64,2.18a1.7,1.7,0,0,1-.27.46,1.59,1.59,0,0,1-.37.33,1.75,1.75,0,0,1-.44.2,1.56,1.56,0,0,1-.45.07H54.77l6.78-17.35a1.64,1.64,0,0,1,.57-0.75A1.51,1.51,0,0,1,63,24.87h1.22Zm12.9-17a6.26,6.26,0,0,1,2.1.33,4.79,4.79,0,0,1,1.6.92,4,4,0,0,1,1,1.38,4.12,4.12,0,0,1,.35,1.71,5,5,0,0,1-.18,1.41A3.3,3.3,0,0,1,74.77,32a3.18,3.18,0,0,1-.84.77,5.07,5.07,0,0,1-1.12.52,4.39,4.39,0,0,1,2.25,1.45,3.92,3.92,0,0,1,.74,2.45,5,5,0,0,1-.46,2.22A4.77,4.77,0,0,1,74.09,41a5.47,5.47,0,0,1-1.83,1,7.11,7.11,0,0,1-2.2.34A7.51,7.51,0,0,1,67.85,42a4.79,4.79,0,0,1-1.64-.86A5.18,5.18,0,0,1,65,39.77a9.45,9.45,0,0,1-.84-1.9l1.27-.52a1.66,1.66,0,0,1,.66-0.14,1.12,1.12,0,0,1,.54.13,0.87,0.87,0,0,1,.37.37q0.21,0.41.46,0.8a3.26,3.26,0,0,0,.6.7,2.85,2.85,0,0,0,.82.5A3,3,0,0,0,70,39.9a3.18,3.18,0,0,0,1.28-.24A2.77,2.77,0,0,0,72.21,39a2.55,2.55,0,0,0,.55-0.85,2.63,2.63,0,0,0,.18-0.95,4.39,4.39,0,0,0-.13-1.1,1.63,1.63,0,0,0-.53-0.84,2.9,2.9,0,0,0-1.17-.55,8.4,8.4,0,0,0-2-.2V32.5a6.94,6.94,0,0,0,1.75-.19,3,3,0,0,0,1.11-.52,1.76,1.76,0,0,0,.57-0.8,3.09,3.09,0,0,0,.16-1A2.36,2.36,0,0,0,72,28.17a2.49,2.49,0,0,0-1.78-.61,2.62,2.62,0,0,0-1.7.54,2.81,2.81,0,0,0-.94,1.39,1.26,1.26,0,0,1-.38.63,1,1,0,0,1-.64.19,2.44,2.44,0,0,1-.4,0L64.68,30a6.22,6.22,0,0,1,.67-2.12,5.09,5.09,0,0,1,1.25-1.52,5.17,5.17,0,0,1,1.72-.92A6.85,6.85,0,0,1,70.41,25.15Zm-60,125.18a0.33,0.33,0,0,1,.25.11l0.69,0.75A3.81,3.81,0,0,1,10,152.29a4.88,4.88,0,0,1-2,.38,4.78,4.78,0,0,1-1.89-.36,4.17,4.17,0,0,1-1.44-1,4.37,4.37,0,0,1-.91-1.53,5.74,5.74,0,0,1-.32-1.94,5.23,5.23,0,0,1,.35-2,4.41,4.41,0,0,1,2.53-2.52,5.26,5.26,0,0,1,2-.36,4.67,4.67,0,0,1,1.84.34,4.3,4.3,0,0,1,1.35.89l-0.59.82a0.54,0.54,0,0,1-.13.14,0.38,0.38,0,0,1-.23.06,0.51,0.51,0,0,1-.31-0.12,3.91,3.91,0,0,0-.4-0.25,3.21,3.21,0,0,0-.61-0.25,3.13,3.13,0,0,0-.94-0.12,3.18,3.18,0,0,0-1.23.23,2.72,2.72,0,0,0-1,.66,3,3,0,0,0-.63,1,4,4,0,0,0-.23,1.39,4.14,4.14,0,0,0,.23,1.42,3.12,3.12,0,0,0,.61,1,2.61,2.61,0,0,0,.91.65,2.81,2.81,0,0,0,1.13.23,4.87,4.87,0,0,0,.65,0A2.78,2.78,0,0,0,9.26,151a2.35,2.35,0,0,0,.46-0.22,2.87,2.87,0,0,0,.44-0.33l0.14-.09A0.36,0.36,0,0,1,10.46,150.33Zm4.91-4.58a3.68,3.68,0,0,1,1.36.24,2.94,2.94,0,0,1,1,.69,3,3,0,0,1,.67,1.09,4.49,4.49,0,0,1,0,2.87,3.1,3.1,0,0,1-.67,1.09,2.89,2.89,0,0,1-1,.69,4,4,0,0,1-2.73,0,2.92,2.92,0,0,1-1-.69,3.12,3.12,0,0,1-.67-1.09,4.43,4.43,0,0,1,0-2.87,3.06,3.06,0,0,1,.67-1.09,3,3,0,0,1,1-.69A3.71,3.71,0,0,1,15.37,145.74Zm0,5.67a1.42,1.42,0,0,0,1.24-.56,2.82,2.82,0,0,0,.4-1.65,2.85,2.85,0,0,0-.4-1.65,1.41,1.41,0,0,0-1.24-.57,1.44,1.44,0,0,0-1.26.57,2.84,2.84,0,0,0-.41,1.65,2.81,2.81,0,0,0,.41,1.65A1.44,1.44,0,0,0,15.37,151.42Zm8.42-4.26a0.44,0.44,0,0,1-.14.15,0.36,0.36,0,0,1-.18,0,0.57,0.57,0,0,1-.25-0.07l-0.31-.15a2.87,2.87,0,0,0-.4-0.15,1.91,1.91,0,0,0-.53-0.07,1.24,1.24,0,0,0-.75.2,0.63,0.63,0,0,0-.27.53,0.51,0.51,0,0,0,.14.36,1.27,1.27,0,0,0,.37.26,3.72,3.72,0,0,0,.53.2l0.6,0.19c0.2,0.07.41,0.15,0.6,0.24a2.07,2.07,0,0,1,.53.34,1.49,1.49,0,0,1,.51,1.19,2.23,2.23,0,0,1-.18.89,2,2,0,0,1-.52.71,2.41,2.41,0,0,1-.84.46,3.62,3.62,0,0,1-1.15.17,3.69,3.69,0,0,1-.68-0.06,4.06,4.06,0,0,1-.63-0.17,3.48,3.48,0,0,1-.56-0.26,2.65,2.65,0,0,1-.45-0.33l0.37-.61a0.52,0.52,0,0,1,.17-0.17A0.47,0.47,0,0,1,20,151a0.52,0.52,0,0,1,.28.08l0.31,0.18a2.77,2.77,0,0,0,.42.18,1.8,1.8,0,0,0,.6.09,1.56,1.56,0,0,0,.49-0.07,1.05,1.05,0,0,0,.34-0.18,0.67,0.67,0,0,0,.2-0.26,0.77,0.77,0,0,0,.06-0.3,0.54,0.54,0,0,0-.14-0.39,1.23,1.23,0,0,0-.37-0.26,3.55,3.55,0,0,0-.53-0.2l-0.61-.19a5.5,5.5,0,0,1-.61-0.25,2.08,2.08,0,0,1-.53-0.36,1.61,1.61,0,0,1-.37-0.53,1.85,1.85,0,0,1-.14-0.76,1.93,1.93,0,0,1,.16-0.79,1.83,1.83,0,0,1,.48-0.65,2.38,2.38,0,0,1,.79-0.45,3.29,3.29,0,0,1,1.1-.17,3.36,3.36,0,0,1,1.26.23,2.84,2.84,0,0,1,.95.6Zm3.81,5.51a1.76,1.76,0,0,1-1.34-.49,1.9,1.9,0,0,1-.47-1.36v-3.75H25.11a0.31,0.31,0,0,1-.32-0.34v-0.64l1.08-.18,0.34-1.83a0.32,0.32,0,0,1,.12-0.2,0.38,0.38,0,0,1,.24-0.07H27.4v2.11h1.77v1.15H27.4v3.64a0.71,0.71,0,0,0,.16.49,0.53,0.53,0,0,0,.42.18,0.78,0.78,0,0,0,.25,0l0.18-.08,0.13-.08a0.22,0.22,0,0,1,.12,0,0.18,0.18,0,0,1,.12,0,0.53,0.53,0,0,1,.1.11l0.48,0.79a2.45,2.45,0,0,1-.81.44A3,3,0,0,1,27.6,152.66Zm5.41-.1v-5.49L32.42,147a0.62,0.62,0,0,1-.3-0.13,0.34,0.34,0,0,1-.11-0.28v-0.66h1v-0.5a2.91,2.91,0,0,1,.17-1,2.14,2.14,0,0,1,.5-0.78,2.17,2.17,0,0,1,.79-0.49,3,3,0,0,1,1-.17,2.92,2.92,0,0,1,.86.12l0,0.81a0.24,0.24,0,0,1-.18.24,1.42,1.42,0,0,1-.38,0,1.91,1.91,0,0,0-.51.06,0.86,0.86,0,0,0-.38.22,1,1,0,0,0-.24.41,2,2,0,0,0-.08.62v0.45h1.75v1.15H34.62v5.5H33Zm7-6.82a3.68,3.68,0,0,1,1.36.24,2.94,2.94,0,0,1,1,.69,3,3,0,0,1,.67,1.09,4.49,4.49,0,0,1,0,2.87,3.1,3.1,0,0,1-.67,1.09,2.89,2.89,0,0,1-1,.69,4,4,0,0,1-2.73,0,2.92,2.92,0,0,1-1-.69,3.12,3.12,0,0,1-.67-1.09,4.43,4.43,0,0,1,0-2.87,3.06,3.06,0,0,1,.67-1.09,3,3,0,0,1,1-.69A3.71,3.71,0,0,1,40,145.74Zm0,5.67a1.42,1.42,0,0,0,1.24-.56,2.82,2.82,0,0,0,.4-1.65,2.85,2.85,0,0,0-.4-1.65A1.41,1.41,0,0,0,40,147a1.44,1.44,0,0,0-1.26.57,2.84,2.84,0,0,0-.41,1.65,2.81,2.81,0,0,0,.41,1.65A1.44,1.44,0,0,0,40,151.42Zm4.44,1.14v-6.71h0.95a0.51,0.51,0,0,1,.35.09,0.53,0.53,0,0,1,.13.31l0.1,0.81a3.18,3.18,0,0,1,.84-1,1.77,1.77,0,0,1,1.09-.36,1.4,1.4,0,0,1,.82.23l-0.21,1.21a0.25,0.25,0,0,1-.09.17,0.28,0.28,0,0,1-.18,0,1.11,1.11,0,0,1-.27,0,1.81,1.81,0,0,0-.45,0,1.37,1.37,0,0,0-.86.28,2.13,2.13,0,0,0-.61.81v4.18H44.48Zm8.5-1.21H54.9v-5.51q0-.32,0-0.67l-1.36,1.14a0.49,0.49,0,0,1-.17.1l-0.17,0a0.51,0.51,0,0,1-.24-0.06,0.44,0.44,0,0,1-.16-0.13l-0.51-.7,2.88-2.45h1.33v8.26h1.7v1.21H53v-1.21ZM62.61,143a3.55,3.55,0,0,1,1.2.19,2.7,2.7,0,0,1,.93.55,2.48,2.48,0,0,1,.6.85,2.74,2.74,0,0,1,.22,1.11,2.94,2.94,0,0,1-.15,1,4,4,0,0,1-.41.85,5.73,5.73,0,0,1-.6.78l-0.73.77-2.13,2.18a5,5,0,0,1,.61-0.14,3.52,3.52,0,0,1,.58,0h2.43a0.58,0.58,0,0,1,.42.15,0.52,0.52,0,0,1,.15.39v1H59.23V152a1,1,0,0,1,.29-0.67l2.87-2.88q0.36-.37.64-0.7a4.69,4.69,0,0,0,.48-0.66,3,3,0,0,0,.29-0.66,2.46,2.46,0,0,0,.1-0.71,1.67,1.67,0,0,0-.1-0.6,1.15,1.15,0,0,0-.72-0.7,1.71,1.71,0,0,0-.57-0.09,1.51,1.51,0,0,0-1,.29,1.54,1.54,0,0,0-.53.79,0.65,0.65,0,0,1-.22.36,0.59,0.59,0,0,1-.37.11l-0.22,0-0.85-.15a3.51,3.51,0,0,1,.38-1.19,2.86,2.86,0,0,1,.7-0.86,2.92,2.92,0,0,1,1-.52A3.87,3.87,0,0,1,62.61,143Zm4.17,4.94h3.39v1.35H66.79v-1.35Zm4.77,4.62v-9.72h1.62v3.73A3.39,3.39,0,0,1,74,146a2.5,2.5,0,0,1,1.1-.23,2.41,2.41,0,0,1,1,.19,1.93,1.93,0,0,1,.71.52,2.32,2.32,0,0,1,.43.8,3.43,3.43,0,0,1,.15,1v4.27H75.79v-4.27a1.44,1.44,0,0,0-.28-1,1.05,1.05,0,0,0-.85-0.34,1.69,1.69,0,0,0-.79.19,2.81,2.81,0,0,0-.69.52v4.85H71.56Zm10.17-6.82a3.69,3.69,0,0,1,1.37.24,3,3,0,0,1,1,.69,3,3,0,0,1,.67,1.09,4.48,4.48,0,0,1,0,2.87,3.1,3.1,0,0,1-.67,1.09,2.92,2.92,0,0,1-1,.69,4,4,0,0,1-2.73,0,2.93,2.93,0,0,1-1.05-.69,3.15,3.15,0,0,1-.67-1.09,4.44,4.44,0,0,1,0-2.87,3.09,3.09,0,0,1,.67-1.09,3,3,0,0,1,1.05-.69A3.7,3.7,0,0,1,81.73,145.74Zm0,5.67a1.42,1.42,0,0,0,1.24-.56,2.83,2.83,0,0,0,.4-1.65,2.85,2.85,0,0,0-.4-1.65,1.41,1.41,0,0,0-1.24-.57,1.43,1.43,0,0,0-1.25.57,2.83,2.83,0,0,0-.41,1.65,2.8,2.8,0,0,0,.41,1.65A1.44,1.44,0,0,0,81.73,151.42Zm5.92-5.57v4.26a1.44,1.44,0,0,0,.28,1,1.05,1.05,0,0,0,.85.34,1.71,1.71,0,0,0,.79-0.19,2.78,2.78,0,0,0,.69-0.51v-4.85h1.62v6.71h-1a0.39,0.39,0,0,1-.41-0.29l-0.11-.54a5,5,0,0,1-.43.38,2.6,2.6,0,0,1-.47.29,2.66,2.66,0,0,1-1.17.26,2.37,2.37,0,0,1-1-.19,2,2,0,0,1-.71-0.53,2.3,2.3,0,0,1-.43-0.81,3.43,3.43,0,0,1-.15-1v-4.26h1.62Zm5.83,6.71v-6.71h0.95a0.51,0.51,0,0,1,.35.09,0.52,0.52,0,0,1,.13.31l0.1,0.81a3.16,3.16,0,0,1,.84-1,1.78,1.78,0,0,1,1.09-.36,1.39,1.39,0,0,1,.82.23l-0.21,1.21a0.25,0.25,0,0,1-.08.17,0.29,0.29,0,0,1-.18,0,1.12,1.12,0,0,1-.27,0,1.8,1.8,0,0,0-.45,0,1.37,1.37,0,0,0-.86.28,2.13,2.13,0,0,0-.61.81v4.18H93.48Zm11.59-5.4a0.44,0.44,0,0,1-.14.15,0.36,0.36,0,0,1-.18,0,0.58,0.58,0,0,1-.25-0.07l-0.31-.15a2.84,2.84,0,0,0-.4-0.15,1.91,1.91,0,0,0-.53-0.07,1.24,1.24,0,0,0-.75.2,0.63,0.63,0,0,0-.28.53,0.51,0.51,0,0,0,.14.36,1.28,1.28,0,0,0,.37.26,3.75,3.75,0,0,0,.53.2l0.6,0.19a6.43,6.43,0,0,1,.6.24,2.12,2.12,0,0,1,.53.34,1.5,1.5,0,0,1,.51,1.19,2.24,2.24,0,0,1-.18.89,2,2,0,0,1-.52.71,2.43,2.43,0,0,1-.84.46,3.61,3.61,0,0,1-1.15.17,3.69,3.69,0,0,1-.68-0.06,4,4,0,0,1-.63-0.17,3.46,3.46,0,0,1-.56-0.26,2.69,2.69,0,0,1-.46-0.33l0.37-.61a0.54,0.54,0,0,1,.17-0.17,0.47,0.47,0,0,1,.25-0.06,0.52,0.52,0,0,1,.28.08l0.31,0.18a2.8,2.8,0,0,0,.42.18,1.8,1.8,0,0,0,.61.09,1.57,1.57,0,0,0,.49-0.07,1.05,1.05,0,0,0,.34-0.18,0.68,0.68,0,0,0,.2-0.26,0.78,0.78,0,0,0,.06-0.3,0.54,0.54,0,0,0-.14-0.39,1.23,1.23,0,0,0-.37-0.26,3.58,3.58,0,0,0-.53-0.2l-0.61-.19a5.6,5.6,0,0,1-.61-0.25,2.06,2.06,0,0,1-.53-0.36,1.59,1.59,0,0,1-.37-0.53,1.85,1.85,0,0,1-.14-0.76,1.92,1.92,0,0,1,.16-0.79,1.79,1.79,0,0,1,.48-0.65,2.38,2.38,0,0,1,.79-0.45,3.3,3.3,0,0,1,1.1-.17,3.36,3.36,0,0,1,1.26.23,2.86,2.86,0,0,1,.95.6Zm4.38-1.41a3.26,3.26,0,0,1,1.17.2,2.57,2.57,0,0,1,.92.59,2.71,2.71,0,0,1,.6,1,3.59,3.59,0,0,1,.21,1.29,2.2,2.2,0,0,1,0,.3,0.52,0.52,0,0,1-.06.19,0.24,0.24,0,0,1-.12.1,0.48,0.48,0,0,1-.18,0h-4.15a2.32,2.32,0,0,0,.56,1.52,1.73,1.73,0,0,0,1.28.48,2.24,2.24,0,0,0,.68-0.09,3.27,3.27,0,0,0,.5-0.2l0.37-.2a0.63,0.63,0,0,1,.31-0.09,0.35,0.35,0,0,1,.17,0,0.37,0.37,0,0,1,.12.11l0.47,0.59a2.64,2.64,0,0,1-.6.53,3.37,3.37,0,0,1-.7.34,3.82,3.82,0,0,1-.74.18,5.24,5.24,0,0,1-.73.05,3.61,3.61,0,0,1-1.3-.23,2.9,2.9,0,0,1-1-.69,3.22,3.22,0,0,1-.7-1.12,4.36,4.36,0,0,1-.25-1.55,3.71,3.71,0,0,1,.22-1.29,3.07,3.07,0,0,1,.64-1.05,3,3,0,0,1,1-.71A3.35,3.35,0,0,1,109.44,145.74Zm0,1.16a1.5,1.5,0,0,0-1.11.4,2,2,0,0,0-.51,1.13h3a2,2,0,0,0-.09-0.59,1.37,1.37,0,0,0-.26-0.49,1.25,1.25,0,0,0-.45-0.33A1.51,1.51,0,0,0,109.47,146.9Zm4.05,5.66v-6.71h1a0.4,0.4,0,0,1,.41.29l0.1,0.5a3.88,3.88,0,0,1,.37-0.36,2.26,2.26,0,0,1,.41-0.28,2.17,2.17,0,0,1,.47-0.19,2.09,2.09,0,0,1,.55-0.07,1.57,1.57,0,0,1,1,.34,2.07,2.07,0,0,1,.61.91,2,2,0,0,1,.39-0.57,2.13,2.13,0,0,1,.52-0.39,2.35,2.35,0,0,1,.6-0.22,2.87,2.87,0,0,1,.64-0.07,2.66,2.66,0,0,1,1,.17,1.9,1.9,0,0,1,.73.5,2.18,2.18,0,0,1,.45.8,3.5,3.5,0,0,1,.15,1.08v4.27h-1.62v-4.27a1.43,1.43,0,0,0-.28-1,1,1,0,0,0-.82-0.32,1.22,1.22,0,0,0-.46.08,1.08,1.08,0,0,0-.37.25,1.11,1.11,0,0,0-.25.4,1.54,1.54,0,0,0-.09.56v4.27h-1.62v-4.27a1.46,1.46,0,0,0-.27-1,1,1,0,0,0-.8-0.31,1.29,1.29,0,0,0-.65.17,2.21,2.21,0,0,0-.57.47v4.91h-1.62Zm13.66-6.82a3.27,3.27,0,0,1,1.17.2,2.54,2.54,0,0,1,.92.59,2.68,2.68,0,0,1,.6,1,3.59,3.59,0,0,1,.22,1.29,2.56,2.56,0,0,1,0,.3,0.48,0.48,0,0,1-.06.19,0.24,0.24,0,0,1-.11.1,0.5,0.5,0,0,1-.18,0h-4.15a2.31,2.31,0,0,0,.56,1.52,1.73,1.73,0,0,0,1.28.48,2.25,2.25,0,0,0,.68-0.09,3.24,3.24,0,0,0,.5-0.2l0.37-.2a0.63,0.63,0,0,1,.31-0.09,0.35,0.35,0,0,1,.17,0,0.36,0.36,0,0,1,.13.11l0.47,0.59a2.69,2.69,0,0,1-.6.53,3.34,3.34,0,0,1-.7.34,3.84,3.84,0,0,1-.74.18,5.27,5.27,0,0,1-.73.05,3.59,3.59,0,0,1-1.3-.23,2.91,2.91,0,0,1-1-.69,3.21,3.21,0,0,1-.7-1.12,4.36,4.36,0,0,1-.26-1.55,3.71,3.71,0,0,1,.22-1.29,3.1,3.1,0,0,1,.64-1.05,3,3,0,0,1,1-.71A3.34,3.34,0,0,1,127.19,145.74Zm0,1.16a1.5,1.5,0,0,0-1.11.4,2,2,0,0,0-.51,1.13h3a2,2,0,0,0-.09-0.59,1.37,1.37,0,0,0-.26-0.49,1.22,1.22,0,0,0-.45-0.33A1.5,1.5,0,0,0,127.22,146.9Zm8,0.25a0.44,0.44,0,0,1-.14.15,0.36,0.36,0,0,1-.18,0,0.58,0.58,0,0,1-.25-0.07l-0.31-.15A2.84,2.84,0,0,0,134,147a1.91,1.91,0,0,0-.53-0.07,1.24,1.24,0,0,0-.75.2,0.63,0.63,0,0,0-.28.53,0.51,0.51,0,0,0,.14.36,1.28,1.28,0,0,0,.37.26,3.75,3.75,0,0,0,.53.2l0.6,0.19a6.43,6.43,0,0,1,.6.24,2.12,2.12,0,0,1,.53.34,1.5,1.5,0,0,1,.51,1.19,2.24,2.24,0,0,1-.18.89,2,2,0,0,1-.52.71,2.43,2.43,0,0,1-.84.46,3.61,3.61,0,0,1-1.15.17,3.69,3.69,0,0,1-.68-0.06,4,4,0,0,1-.63-0.17,3.46,3.46,0,0,1-.56-0.26,2.69,2.69,0,0,1-.46-0.33l0.37-.61a0.54,0.54,0,0,1,.17-0.17,0.47,0.47,0,0,1,.25-0.06,0.52,0.52,0,0,1,.28.08l0.31,0.18a2.8,2.8,0,0,0,.42.18,1.8,1.8,0,0,0,.61.09,1.57,1.57,0,0,0,.49-0.07,1.05,1.05,0,0,0,.34-0.18,0.68,0.68,0,0,0,.2-0.26,0.78,0.78,0,0,0,.06-0.3,0.54,0.54,0,0,0-.14-0.39,1.23,1.23,0,0,0-.37-0.26,3.58,3.58,0,0,0-.53-0.2l-0.61-.19a5.6,5.6,0,0,1-.61-0.25,2.06,2.06,0,0,1-.53-0.36,1.59,1.59,0,0,1-.37-0.53,1.85,1.85,0,0,1-.14-0.76A1.92,1.92,0,0,1,131,147a1.79,1.79,0,0,1,.48-0.65,2.38,2.38,0,0,1,.79-0.45,3.3,3.3,0,0,1,1.1-.17,3.36,3.36,0,0,1,1.26.23,2.86,2.86,0,0,1,.95.6Zm3.81,5.51a1.76,1.76,0,0,1-1.34-.49,1.9,1.9,0,0,1-.47-1.36v-3.75h-0.68a0.32,0.32,0,0,1-.22-0.09,0.33,0.33,0,0,1-.1-0.25v-0.64l1.08-.18,0.34-1.83a0.33,0.33,0,0,1,.12-0.2,0.38,0.38,0,0,1,.24-0.07h0.84v2.11h1.77v1.15h-1.77v3.64a0.72,0.72,0,0,0,.16.49,0.53,0.53,0,0,0,.42.18,0.77,0.77,0,0,0,.25,0l0.18-.08,0.13-.08a0.23,0.23,0,0,1,.12,0,0.18,0.18,0,0,1,.12,0,0.52,0.52,0,0,1,.1.11l0.48,0.79a2.44,2.44,0,0,1-.81.44A3,3,0,0,1,139.06,152.66Zm5.5-6.92a3.26,3.26,0,0,1,1.17.2,2.57,2.57,0,0,1,.92.59,2.71,2.71,0,0,1,.6,1,3.59,3.59,0,0,1,.21,1.29,2.2,2.2,0,0,1,0,.3,0.52,0.52,0,0,1-.06.19,0.24,0.24,0,0,1-.12.1,0.48,0.48,0,0,1-.18,0h-4.15a2.32,2.32,0,0,0,.56,1.52,1.73,1.73,0,0,0,1.28.48,2.24,2.24,0,0,0,.68-0.09,3.27,3.27,0,0,0,.5-0.2l0.37-.2a0.63,0.63,0,0,1,.31-0.09,0.35,0.35,0,0,1,.17,0,0.37,0.37,0,0,1,.12.11l0.47,0.59a2.64,2.64,0,0,1-.6.53,3.37,3.37,0,0,1-.7.34,3.82,3.82,0,0,1-.74.18,5.24,5.24,0,0,1-.73.05,3.61,3.61,0,0,1-1.3-.23,2.9,2.9,0,0,1-1-.69,3.22,3.22,0,0,1-.7-1.12,4.36,4.36,0,0,1-.25-1.55,3.71,3.71,0,0,1,.22-1.29,3.07,3.07,0,0,1,.64-1.05,3,3,0,0,1,1-.71A3.35,3.35,0,0,1,144.56,145.74Zm0,1.16a1.5,1.5,0,0,0-1.11.4,2,2,0,0,0-.51,1.13h3a2,2,0,0,0-.09-0.59,1.37,1.37,0,0,0-.26-0.49,1.25,1.25,0,0,0-.45-0.33A1.51,1.51,0,0,0,144.6,146.9Zm4.05,5.66v-6.71h0.95a0.51,0.51,0,0,1,.35.09,0.52,0.52,0,0,1,.13.31l0.1,0.81a3.16,3.16,0,0,1,.84-1,1.78,1.78,0,0,1,1.09-.36,1.39,1.39,0,0,1,.82.23l-0.21,1.21a0.25,0.25,0,0,1-.08.17,0.29,0.29,0,0,1-.18,0,1.12,1.12,0,0,1-.27,0,1.8,1.8,0,0,0-.45,0,1.37,1.37,0,0,0-.86.28,2.13,2.13,0,0,0-.61.81v4.18h-1.62Z" fill="#333"/></svg>